<svg xmlns="http://www.w3.org/2000/svg" width="26" height="26.031" viewBox="0 0 26 26.031">
  <metadata><?xpacket begin="﻿" id="W5M0MpCehiHzreSzNTczkc9d"?>
<x:xmpmeta xmlns:x="adobe:ns:meta/" x:xmptk="Adobe XMP Core 5.6-c142 79.160924, 2017/07/13-01:06:39        ">
   <rdf:RDF xmlns:rdf="http://www.w3.org/1999/02/22-rdf-syntax-ns#">
      <rdf:Description rdf:about=""/>
   </rdf:RDF>
</x:xmpmeta>
                                                                                                    
                                                                                                    
                                                                                                    
                                                                                                    
                                                                                                    
                                                                                                    
                                                                                                    
                                                                                                    
                                                                                                    
                                                                                                    
                                                                                                    
                                                                                                    
                                                                                                    
                                                                                                    
                                                                                                    
                                                                                                    
                                                                                                    
                                                                                                    
                                                                                                    
                                                                                                    
                           
<?xpacket end="w"?></metadata>
<defs>
    <style>
      .cls-1 {
        fill: #fff;
        fill-rule: evenodd;
      }
    </style>
  </defs>
  <path id="burger" class="cls-1" d="M99.893,195.068v-1.735H125.92v1.735H99.893Zm23.424-3.47h-9.543v-1.735h9.543V191.6Zm-11.278,0H102.5v-1.735h9.543V191.6Zm-9.543-3.47c-0.055,0,0-.109,0-0.164a8.675,8.675,0,0,1,8.673-8.512h3.471a8.675,8.675,0,0,1,8.673,8.513c0,0.054-.052.163,0,0.163C119.831,188.133,113.049,188.138,102.5,188.128Zm12.146-6.94h-3.471a6.937,6.937,0,0,0-6.713,5.205h16.9A6.938,6.938,0,0,0,114.642,181.188Zm8.675,15.615c0.054,0-.028.136-0.029,0.191a8.651,8.651,0,0,1-8.651,8.485h-3.461a8.651,8.651,0,0,1-8.651-8.487c0-.054-0.083-0.189-0.029-0.189C107.464,196.82,119.911,196.815,123.317,196.8Zm-12.19,6.94h3.559a6.831,6.831,0,0,0,6.67-5.2H104.431A6.862,6.862,0,0,0,111.127,203.743Zm-1.691-20.82a0.868,0.868,0,1,1-.867.867A0.868,0.868,0,0,1,109.436,182.923Zm3.471-.868a0.868,0.868,0,1,1-.868.868A0.867,0.867,0,0,1,112.907,182.055Zm3.47,0.868a0.868,0.868,0,1,1-.868.867A0.867,0.867,0,0,1,116.377,182.923Z" transform="translate(-99.906 -179.438)"/>
</svg>
