<svg xmlns="http://www.w3.org/2000/svg" width="25.938" height="25.938" viewBox="0 0 25.938 25.938">
  <metadata><?xpacket begin="﻿" id="W5M0MpCehiHzreSzNTczkc9d"?>
<x:xmpmeta xmlns:x="adobe:ns:meta/" x:xmptk="Adobe XMP Core 5.6-c142 79.160924, 2017/07/13-01:06:39        ">
   <rdf:RDF xmlns:rdf="http://www.w3.org/1999/02/22-rdf-syntax-ns#">
      <rdf:Description rdf:about=""/>
   </rdf:RDF>
</x:xmpmeta>
                                                                                                    
                                                                                                    
                                                                                                    
                                                                                                    
                                                                                                    
                                                                                                    
                                                                                                    
                                                                                                    
                                                                                                    
                                                                                                    
                                                                                                    
                                                                                                    
                                                                                                    
                                                                                                    
                                                                                                    
                                                                                                    
                                                                                                    
                                                                                                    
                                                                                                    
                                                                                                    
                           
<?xpacket end="w"?></metadata>
<defs>
    <style>
      .cls-1 {
        fill: #fff;
        fill-rule: evenodd;
      }
    </style>
  </defs>
  <path id="pizza" class="cls-1" d="M128.868,459.3a17.013,17.013,0,0,0-4.809-10.752,17.225,17.225,0,0,0-10.752-4.808l0.864-1.73A18.452,18.452,0,0,1,125.41,447.2a17,17,0,0,1,5.187,11.238Zm-6.052-9.509a16.722,16.722,0,0,1,4.323,9.509l-22.477,8.646,8.645-22.478A16.722,16.722,0,0,1,122.816,449.792Zm-6.2,11.773a1.221,1.221,0,0,0-1.578-.535,1.544,1.544,0,0,0-.867,1.525Zm-4.207,1.7c-0.055-.9.032-3.232,2.359-3.857a3.241,3.241,0,0,1,3.616,1.44l7.028-2.845A13.06,13.06,0,0,0,114.6,447.2l-7.349,18.154Zm5.222-11.746a2.594,2.594,0,1,1-2.593,2.593A2.593,2.593,0,0,1,117.629,451.521Zm0,3.458a0.865,0.865,0,1,0-.864-0.865A0.865,0.865,0,0,0,117.629,454.979Z" transform="translate(-104.656 -442)"/>
</svg>
