<svg xmlns="http://www.w3.org/2000/svg" width="26" height="25.125" viewBox="0 0 26 25.125">
  <metadata><?xpacket begin="﻿" id="W5M0MpCehiHzreSzNTczkc9d"?>
<x:xmpmeta xmlns:x="adobe:ns:meta/" x:xmptk="Adobe XMP Core 5.6-c142 79.160924, 2017/07/13-01:06:39        ">
   <rdf:RDF xmlns:rdf="http://www.w3.org/1999/02/22-rdf-syntax-ns#">
      <rdf:Description rdf:about=""/>
   </rdf:RDF>
</x:xmpmeta>
                                                                                                    
                                                                                                    
                                                                                                    
                                                                                                    
                                                                                                    
                                                                                                    
                                                                                                    
                                                                                                    
                                                                                                    
                                                                                                    
                                                                                                    
                                                                                                    
                                                                                                    
                                                                                                    
                                                                                                    
                                                                                                    
                                                                                                    
                                                                                                    
                                                                                                    
                                                                                                    
                           
<?xpacket end="w"?></metadata>
<defs>
    <style>
      .cls-1 {
        fill: #fff;
        fill-rule: evenodd;
      }
    </style>
  </defs>
  <path id="sushi" class="cls-1" d="M119.617,998.3l-14.57,4-4.7,9.94-1.521-.88,3.993-8.45-8.752,2.4-0.453-1.66,10.174-2.79,6.494-13.751,1.521,0.881-1.538,3.254a4.315,4.315,0,1,1,5.92,6.212l2.975-.817Zm-10.4-4.255a4.36,4.36,0,0,1,.073-0.728l-3.272,6.931,7.006-1.926A4.315,4.315,0,0,1,109.216,994.047Zm4.331-2.6a2.6,2.6,0,1,0,2.6,2.6A2.6,2.6,0,0,0,113.547,991.448Zm0,3.464a0.866,0.866,0,1,1,.866-0.865A0.866,0.866,0,0,1,113.547,994.912Z" transform="translate(-93.625 -987.125)"/>
</svg>
