<svg xmlns="http://www.w3.org/2000/svg" width="26.062" height="26.062" viewBox="0 0 26.062 26.062">
  <metadata><?xpacket begin="﻿" id="W5M0MpCehiHzreSzNTczkc9d"?>
<x:xmpmeta xmlns:x="adobe:ns:meta/" x:xmptk="Adobe XMP Core 5.6-c142 79.160924, 2017/07/13-01:06:39        ">
   <rdf:RDF xmlns:rdf="http://www.w3.org/1999/02/22-rdf-syntax-ns#">
      <rdf:Description rdf:about=""/>
   </rdf:RDF>
</x:xmpmeta>
                                                                                                    
                                                                                                    
                                                                                                    
                                                                                                    
                                                                                                    
                                                                                                    
                                                                                                    
                                                                                                    
                                                                                                    
                                                                                                    
                                                                                                    
                                                                                                    
                                                                                                    
                                                                                                    
                                                                                                    
                                                                                                    
                                                                                                    
                                                                                                    
                                                                                                    
                                                                                                    
                           
<?xpacket end="w"?></metadata>
<defs>
    <style>
      .cls-1 {
        fill: #fff;
        fill-rule: evenodd;
      }
    </style>
  </defs>
  <path id="taco" class="cls-1" d="M129.018,722.868l-17.9,17.9a19.85,19.85,0,0,1-2.279-2.672,1.733,1.733,0,1,1-1.564-2.539c-0.211-.41-0.416-0.832-0.6-1.275a1.734,1.734,0,1,1-1.1-3.071,1.61,1.61,0,0,1,.185.019c-0.067-.376-0.119-0.758-0.151-1.146a1.736,1.736,0,1,1,.128-2.868,12.971,12.971,0,0,1,3.8-6.913,13.226,13.226,0,0,1,5.973-2.777,1.736,1.736,0,1,1,2.821-.157q0.588,0.042,1.156.137a1.692,1.692,0,0,1-.019-0.187,1.737,1.737,0,1,1,3.09,1.075c0.439,0.181.855,0.381,1.259,0.589a1.734,1.734,0,1,1,2.568,1.584A18.8,18.8,0,0,1,129.018,722.868Zm-3.416-.743a11.128,11.128,0,0,0-14.824-.46c-4.734,4.158-4.429,10.668-.354,15.665l0.815,1.05L126.7,723.112Zm-16.072-1.817C109.443,720.376,109.609,720.228,109.53,720.308Z" transform="translate(-102.969 -714.719)"/>
</svg>
